<svg width="57" height="57" viewBox="0 0 57 57" fill="none" xmlns="http://www.w3.org/2000/svg">
<g id="Group 21">
<circle id="Ellipse 98" cx="28.4136" cy="28.179" r="28" fill="#6A92FF"/>
<g id="&#240;&#159;&#166;&#134; icon &#34;edit pencil&#34;">
<g id="Vector">
<path d="M31.5377 20.019L35.3777 16.179L42.0977 22.899L38.2577 26.7389M31.5377 20.019L18.4953 33.0614C18.2407 33.3159 18.0977 33.6613 18.0977 34.0213V40.179H24.2553C24.6154 40.179 24.9607 40.036 25.2153 39.7813L38.2577 26.7389M31.5377 20.019L38.2577 26.7389L31.5377 20.019Z" fill="#6A92FF"/>
<path d="M31.5377 20.019L35.3777 16.179L42.0977 22.899L38.2577 26.7389M31.5377 20.019L18.4953 33.0614C18.2407 33.3159 18.0977 33.6613 18.0977 34.0213V40.179H24.2553C24.6154 40.179 24.9607 40.036 25.2153 39.7813L38.2577 26.7389M31.5377 20.019L38.2577 26.7389" stroke="white" stroke-width="1.5" stroke-linecap="round" stroke-linejoin="round"/>
</g>
</g>
</g>
</svg>
